<?xml version="1.0" encoding="UTF-8"?>
<svg enable-background="new 0 0 346 21" version="1.1" viewBox="0 0 346 21" xml:space="preserve" xmlns="http://www.w3.org/2000/svg">

	<path d="m19.7 11.5c0 6-4.2 9.7-9.4 9.7-5.1 0-9.1-3.9-9.1-9.3 0-5 3.5-9.7 9.4-9.7 4.8 0 9.1 3.6 9.1 9.3zm-15.6-0.4c0 5.3 2.9 9.1 6.8 9.1 3.1 0 5.9-2.6 5.9-8 0-5.9-3.1-9-6.8-9-3.1 0-5.9 2.6-5.9 7.9z"/>
	<path d="m27.5 20.8v-0.7c1.2-0.1 1.4-0.4 1-1.1l-2.1-3.3c-0.6 0.9-1.3 2-1.8 3-0.6 1-0.5 1.2 1 1.4v0.7h-5.2v-0.7c1.7-0.2 2-0.4 3.1-1.8 0.8-1 1.5-2.1 2.4-3.4l-2.5-3.9c-0.9-1.3-1.2-1.6-2.7-1.8v-0.6h5.6v0.7c-1.2 0.2-1.3 0.4-0.8 1.2l1.7 2.6c0.6-0.8 1.1-1.7 1.6-2.6s0.3-1-0.9-1.1v-0.8h5.1v0.7c-1.7 0.2-2.1 0.3-3.1 1.5-0.6 0.7-1.3 1.7-2.2 3.1l2.7 4.1c1 1.6 1.4 1.8 3.1 2.1v0.7h-6z"/>
	<path d="m35.5 8.6v-0.6c0-0.9 0.1-1.7 0.3-2.3 0.2-0.7 0.7-2.1 2.2-3.4 1-0.8 2-1.3 3.1-1.5 1 0.1 1.8 0.4 2.2 1 0.3 0.3 0.3 0.6 0.1 1-0.1 0.2-0.3 0.4-0.5 0.7-0.3 0.2-0.5 0.2-0.8-0.1-0.5-0.5-1.3-1-2.3-1-0.7 0-1.2 0.3-1.5 0.8-0.4 0.6-0.7 1.9-0.6 4.3v1.1h3.3c0.2 0.3 0 0.9-0.3 1.1h-3v8c0 2.1 0.2 2.2 2.4 2.4v0.7h-6.6v-0.7c1.8-0.2 2-0.3 2-2.2v-8.2h-2l-0.1-0.3 0.8-0.8h1.3z"/>
	<path d="m53.5 14.5c0 4.5-3.3 6.7-6.1 6.7-3.8 0-6.1-3.1-6.1-6.2 0-4.6 3.6-6.7 6.2-6.7 3.5-0.1 6 2.7 6 6.2zm-9.6-0.5c0 3.5 1.5 6.2 3.8 6.2 1.7 0 3.2-1.3 3.2-5.1 0-3.2-1.3-5.9-3.8-5.9-1.7-0.1-3.2 1.7-3.2 4.8z"/>
	<path d="m58.7 11.2c0.8-1.4 2-3 3.4-3 1 0 1.6 0.8 1.6 1.4s-0.4 1.1-0.9 1.4c-0.3 0.1-0.6 0.1-0.7-0.1-0.4-0.4-0.8-0.6-1.2-0.6-0.7 0-1.6 0.8-2.2 2.4v5.1c0 1.8 0.1 2 2.3 2.2v0.7h-6.4v-0.7c1.7-0.2 1.9-0.3 1.9-2.2v-5.8c0-1.8-0.1-2-1.7-2.2v-0.5c1.4-0.2 2.6-0.6 3.9-1.1v3z"/>
	<path d="m77.8 20.1c-0.6 0.1-2.7 0.5-4.3 1.1v-1.8l-1.7 1c-1.1 0.6-1.9 0.8-2.2 0.8-2.2 0-5.2-2-5.2-6 0-3.9 3.4-6.9 7.2-6.9 0.4 0 1.2 0.1 1.9 0.3v-4c0-1.8-0.1-1.9-2.2-2v-0.8c1.5-0.2 3.3-0.6 4.4-1v16.7c0 1.5 0.2 1.6 1.2 1.7l0.9 0.1v0.8zm-4.4-9.4c-0.7-1-1.8-1.4-2.9-1.4-1.3 0-3.7 1.1-3.7 5.1 0 3.3 2 5 3.9 5 1 0 2-0.4 2.7-1v-7.7z"/>
	<path d="M85.2,20.8V2.3h4.2v15h7.3v3.5H85.2z"/>
	<path d="m104.7 21.1c-1 0-1.9-0.2-2.8-0.5s-1.6-0.8-2.3-1.4c-0.6-0.6-1.1-1.4-1.5-2.3s-0.5-1.9-0.5-3.1c0-1.1 0.2-2.2 0.6-3.1s0.9-1.7 1.5-2.3 1.3-1.1 2.1-1.5c0.8-0.3 1.6-0.5 2.5-0.5 1 0 1.9 0.2 2.6 0.5s1.4 0.8 1.9 1.4 0.9 1.3 1.1 2.1 0.4 1.7 0.4 2.7c0 0.4 0 0.7-0.1 1.1 0 0.3-0.1 0.6-0.1 0.8h-8.4c0.2 1 0.6 1.8 1.3 2.3s1.5 0.7 2.4 0.7c1 0 2-0.3 3-0.9l1.4 2.5c-0.7 0.5-1.5 0.9-2.4 1.2s-1.8 0.3-2.7 0.3zm-3.1-8.9h5.1c0-0.8-0.2-1.4-0.5-1.9-0.4-0.5-1-0.7-1.8-0.7-0.7 0-1.2 0.2-1.7 0.7-0.6 0.3-0.9 1-1.1 1.9z"/>
	<path d="m116.1 21.1c-0.6 0-1.2-0.1-1.7-0.3s-1-0.5-1.3-0.9c-0.4-0.4-0.6-0.8-0.8-1.3s-0.3-1.1-0.3-1.7c0-1.5 0.6-2.6 1.9-3.5 1.2-0.8 3.3-1.4 6-1.7 0-0.6-0.2-1.1-0.6-1.5-0.3-0.4-0.9-0.6-1.7-0.6-0.6 0-1.2 0.1-1.8 0.3s-1.2 0.5-1.9 0.9l-1.5-2.8c0.9-0.5 1.9-1 2.9-1.3s2-0.5 3.2-0.5c1.8 0 3.2 0.5 4.2 1.5s1.4 2.6 1.4 4.8v8.1h-3.4l-0.3-1.4h-0.1c-0.6 0.5-1.2 1-1.9 1.3-0.7 0.5-1.5 0.6-2.3 0.6zm1.5-3.2c0.5 0 0.9-0.1 1.2-0.3s0.7-0.5 1.1-0.9v-2.5c-1.5 0.2-2.5 0.5-3.1 0.9s-0.9 0.9-0.9 1.4 0.1 0.8 0.4 1 0.8 0.4 1.3 0.4z"/>
	<path d="m126.4 20.8v-14.1h3.4l0.3 2.5h0.1c0.5-1 1.1-1.7 1.8-2.1 0.7-0.5 1.4-0.7 2.2-0.7 0.4 0 0.7 0 1 0.1 0.3 0 0.5 0.1 0.7 0.2l-0.7 3.6c-0.3-0.1-0.5-0.1-0.7-0.2-0.2 0-0.5-0.1-0.8-0.1-0.5 0-1.1 0.2-1.7 0.6s-1.1 1.1-1.4 2v8.2h-4.2z"/>
	<path d="m137.2 20.8v-14.1h3.4l0.3 1.8h0.1c0.6-0.6 1.3-1.1 2-1.5s1.6-0.6 2.5-0.6c1.5 0 2.6 0.5 3.3 1.5s1 2.4 1 4.2v8.7h-4.2v-8.2c0-1-0.1-1.7-0.4-2.1s-0.7-0.6-1.3-0.6c-0.5 0-1 0.1-1.4 0.4-0.4 0.2-0.8 0.6-1.2 1v9.5h-4.1z"/>
	<path d="m159.1 21.1c-1 0-1.9-0.2-2.8-0.5s-1.6-0.8-2.3-1.4c-0.6-0.6-1.1-1.4-1.5-2.3s-0.5-1.9-0.5-3.1c0-1.1 0.2-2.2 0.6-3.1s0.9-1.7 1.5-2.3 1.3-1.1 2.1-1.5c0.8-0.3 1.6-0.5 2.5-0.5 1 0 1.9 0.2 2.6 0.5s1.4 0.8 1.9 1.4 0.9 1.3 1.1 2.1 0.4 1.7 0.4 2.7c0 0.4 0 0.7-0.1 1.1s-0.1 0.6-0.1 0.8h-8.5c0.2 1 0.6 1.8 1.3 2.3s1.5 0.7 2.4 0.7c1 0 2-0.3 3-0.9l1.4 2.5c-0.7 0.5-1.5 0.9-2.4 1.2s-1.7 0.3-2.6 0.3zm-3.1-8.9h5.1c0-0.8-0.2-1.4-0.5-1.9-0.4-0.5-1-0.7-1.8-0.7-0.7 0-1.2 0.2-1.7 0.7-0.6 0.3-0.9 1-1.1 1.9z"/>
	<path d="m167 20.8v-14.1h3.4l0.3 2.5h0.1c0.5-1 1.1-1.7 1.8-2.1 0.7-0.5 1.4-0.7 2.2-0.7 0.4 0 0.7 0 1 0.1s0.5 0.1 0.7 0.2l-0.7 3.6c-0.3-0.1-0.5-0.1-0.7-0.2-0.2 0-0.5-0.1-0.8-0.1-0.5 0-1.1 0.2-1.7 0.6s-1.1 1.1-1.4 2v8.2h-4.2z"/>
	<path d="m178.8 10.8-0.9-1.8c0.9-0.4 1.5-0.9 1.9-1.5s0.6-1.3 0.6-2.1h-0.3c-0.6 0-1.1-0.2-1.5-0.6-0.4-0.3-0.6-0.8-0.6-1.5s0.2-1.3 0.6-1.7 0.9-0.6 1.6-0.6c0.9 0 1.5 0.3 2 1s0.7 1.6 0.7 2.8c0 1.3-0.3 2.5-1 3.5s-1.8 1.8-3.1 2.5z"/>
	<path d="m189 21.1c-0.9 0-1.9-0.2-2.9-0.5-1-0.4-1.8-0.8-2.5-1.4l1.9-2.6c0.6 0.5 1.3 0.9 1.8 1.1 0.6 0.2 1.2 0.4 1.8 0.4s1.1-0.1 1.4-0.3 0.4-0.5 0.4-0.9c0-0.2-0.1-0.4-0.2-0.6-0.2-0.2-0.4-0.3-0.7-0.5s-0.6-0.3-0.9-0.4-0.7-0.3-1.1-0.4c-0.4-0.2-0.9-0.4-1.3-0.6s-0.8-0.5-1.2-0.8-0.7-0.7-0.9-1.2c-0.2-0.4-0.3-1-0.3-1.5 0-0.6 0.1-1.2 0.4-1.8 0.3-0.5 0.6-1 1.1-1.4s1-0.7 1.7-0.9 1.4-0.3 2.2-0.3c1.1 0 2 0.2 2.8 0.6s1.5 0.8 2.1 1.2l-1.9 2.5c-0.5-0.4-1-0.7-1.5-0.9s-1-0.3-1.5-0.3c-1.1 0-1.6 0.4-1.6 1.1 0 0.2 0.1 0.4 0.2 0.6 0.2 0.2 0.4 0.3 0.6 0.4 0.3 0.1 0.5 0.3 0.9 0.4 0.3 0.1 0.7 0.3 1 0.4 0.5 0.2 0.9 0.4 1.3 0.6s0.9 0.5 1.2 0.8 0.7 0.7 0.9 1.2 0.3 1 0.3 1.7c0 0.6-0.1 1.2-0.4 1.8s-0.6 1-1.1 1.4-1.1 0.7-1.8 1-1.3 0.1-2.2 0.1z"/>
	<path d="m202.3 20.8v-18.5h5.2c1.4 0 2.7 0.2 3.8 0.5 1.1 0.4 2.1 0.9 2.9 1.7 0.8 0.7 1.4 1.7 1.9 2.9s0.7 2.5 0.7 4.1-0.2 3-0.7 4.1-1.1 2.1-1.8 2.9-1.7 1.3-2.9 1.7c-1.1 0.4-2.3 0.6-3.7 0.6h-5.4zm4.1-3.4h0.8c0.8 0 1.5-0.1 2.2-0.3 0.6-0.2 1.2-0.5 1.6-1 0.5-0.5 0.8-1.1 1.1-1.8 0.3-0.8 0.4-1.7 0.4-2.8s-0.1-2-0.4-2.8c-0.3-0.7-0.6-1.3-1.1-1.8-0.5-0.4-1-0.8-1.6-1s-1.4-0.3-2.2-0.3h-0.8v11.8z"/>
	<path d="m221.5 4.6c-0.7 0-1.3-0.2-1.7-0.6-0.5-0.4-0.7-0.9-0.7-1.6s0.2-1.2 0.7-1.6 1-0.6 1.7-0.6 1.3 0.2 1.7 0.6 0.7 0.9 0.7 1.6-0.2 1.2-0.7 1.6c-0.4 0.4-1 0.6-1.7 0.6zm-2.1 16.2v-14.1h4.2v14.1h-4.2z"/>
	<path d="m232.8 21.1c-1 0-1.9-0.2-2.7-0.5s-1.6-0.8-2.2-1.4-1.1-1.4-1.5-2.3-0.5-2-0.5-3.1 0.2-2.2 0.6-3.1 0.9-1.7 1.6-2.3 1.5-1.1 2.3-1.4c0.9-0.3 1.8-0.5 2.8-0.5 0.9 0 1.6 0.1 2.3 0.4s1.3 0.6 1.8 1.1l-2 2.7c-0.7-0.5-1.3-0.8-1.9-0.8-1 0-1.8 0.4-2.4 1.1s-0.9 1.7-0.9 2.9 0.3 2.2 0.9 2.9 1.3 1.1 2.3 1.1c0.5 0 0.9-0.1 1.3-0.3s0.8-0.4 1.2-0.7l1.6 2.7c-0.7 0.6-1.5 1-2.3 1.3-0.7 0.1-1.5 0.2-2.3 0.2z"/>
	<path d="m244.8 21.1c-0.9 0-1.6-0.1-2.2-0.4s-1.1-0.6-1.5-1.1-0.7-1-0.9-1.7-0.3-1.4-0.3-2.2v-5.7h-1.9v-3.1l2.2-0.2 0.5-3.7h3.5v3.7h3.4v3.3h-3.4v5.7c0 0.8 0.2 1.4 0.5 1.7 0.3 0.4 0.8 0.5 1.3 0.5 0.2 0 0.5 0 0.7-0.1s0.4-0.1 0.6-0.2l0.7 3c-0.4 0.1-0.8 0.2-1.3 0.3-0.6 0.2-1.2 0.2-1.9 0.2z"/>
	<path d="m251.7 4.6c-0.7 0-1.3-0.2-1.7-0.6-0.5-0.4-0.7-0.9-0.7-1.6s0.2-1.2 0.7-1.6 1-0.6 1.7-0.6 1.3 0.2 1.7 0.6 0.7 0.9 0.7 1.6-0.2 1.2-0.7 1.6c-0.4 0.4-0.9 0.6-1.7 0.6zm-2 16.2v-14.1h4.2v14.1h-4.2z"/>
	<path d="m263 21.1c-0.9 0-1.8-0.2-2.6-0.5s-1.6-0.8-2.2-1.4-1.1-1.4-1.5-2.3-0.6-2-0.6-3.1 0.2-2.2 0.6-3.1 0.9-1.7 1.5-2.3 1.4-1.1 2.2-1.4 1.7-0.5 2.6-0.5 1.7 0.2 2.6 0.5c0.8 0.3 1.6 0.8 2.2 1.4s1.1 1.4 1.5 2.3 0.6 2 0.6 3.1-0.2 2.2-0.6 3.1-0.9 1.7-1.5 2.3-1.4 1.1-2.2 1.4c-0.9 0.4-1.7 0.5-2.6 0.5zm0-3.3c0.9 0 1.5-0.4 1.9-1.1s0.7-1.7 0.7-2.9-0.2-2.2-0.7-2.9c-0.4-0.7-1.1-1.1-1.9-1.1-0.9 0-1.5 0.4-1.9 1.1s-0.6 1.7-0.6 2.9 0.2 2.2 0.6 2.9 1 1.1 1.9 1.1z"/>
	<path d="m272.1 20.8v-14.1h3.4l0.3 1.8h0.1c0.6-0.6 1.3-1.1 2-1.5s1.6-0.6 2.5-0.6c1.5 0 2.6 0.5 3.3 1.5s1 2.4 1 4.2v8.7h-4.2v-8.2c0-1-0.1-1.7-0.4-2.1s-0.7-0.6-1.3-0.6c-0.5 0-1 0.1-1.4 0.4-0.4 0.2-0.8 0.6-1.2 1v9.5h-4.1z"/>
	<path d="m291.4 21.1c-0.6 0-1.2-0.1-1.7-0.3s-1-0.5-1.3-0.9c-0.4-0.4-0.6-0.8-0.8-1.3s-0.3-1.1-0.3-1.7c0-1.5 0.6-2.6 1.9-3.5 1.2-0.8 3.3-1.4 6-1.7 0-0.6-0.2-1.1-0.6-1.5s-0.9-0.6-1.7-0.6c-0.6 0-1.2 0.1-1.8 0.3s-1.2 0.5-1.9 0.9l-1.5-2.8c0.9-0.5 1.9-1 2.9-1.3s2-0.5 3.2-0.5c1.8 0 3.2 0.5 4.2 1.5s1.4 2.6 1.4 4.8v8.1h-3.4l-0.3-1.4h-0.1c-0.6 0.5-1.2 1-1.9 1.3-0.8 0.5-1.5 0.6-2.3 0.6zm1.4-3.2c0.5 0 0.9-0.1 1.2-0.3s0.7-0.5 1.1-0.9v-2.5c-1.5 0.2-2.5 0.5-3.1 0.9s-0.9 0.9-0.9 1.4 0.1 0.8 0.4 1c0.4 0.3 0.8 0.4 1.3 0.4z"/>
	<path d="m302.2 20.8v-14.1h3.4l0.3 2.5h0.1c0.5-1 1.1-1.7 1.8-2.1 0.7-0.5 1.4-0.7 2.2-0.7 0.4 0 0.7 0 1 0.1s0.5 0.1 0.7 0.2l-0.7 3.6c-0.3-0.1-0.5-0.1-0.7-0.2-0.2 0-0.5-0.1-0.8-0.1-0.5 0-1.1 0.2-1.7 0.6s-1.1 1.1-1.4 2v8.2h-4.2z"/>
	<path d="m315 4.6c-0.7 0-1.3-0.2-1.7-0.6-0.5-0.4-0.7-0.9-0.7-1.6s0.2-1.2 0.7-1.6 1-0.6 1.7-0.6 1.3 0.2 1.7 0.6 0.7 0.9 0.7 1.6-0.2 1.2-0.7 1.6c-0.4 0.4-1 0.6-1.7 0.6zm-2.1 16.2v-14.1h4.2v14.1h-4.2z"/>
	<path d="m327.1 21.1c-1 0-1.9-0.2-2.8-0.5s-1.6-0.8-2.3-1.4c-0.6-0.6-1.1-1.4-1.5-2.3s-0.5-1.9-0.5-3.1c0-1.1 0.2-2.2 0.6-3.1s0.9-1.7 1.5-2.3 1.3-1.1 2.1-1.5 1.6-0.5 2.5-0.5c1 0 1.9 0.2 2.6 0.5s1.4 0.8 1.9 1.4 0.9 1.3 1.1 2.1 0.4 1.7 0.4 2.7c0 0.4 0 0.7-0.1 1.1s-0.1 0.6-0.1 0.8h-8.5c0.2 1 0.6 1.8 1.3 2.3s1.5 0.7 2.4 0.7c1 0 2-0.3 3-0.9l1.4 2.5c-0.7 0.5-1.5 0.9-2.4 1.2-0.9 0.2-1.8 0.3-2.6 0.3zm-3.1-8.9h5.1c0-0.8-0.2-1.4-0.5-1.9-0.4-0.5-1-0.7-1.8-0.7-0.7 0-1.2 0.2-1.7 0.7-0.7 0.3-1 1-1.1 1.9z"/>
	<path d="m339.1 21.1c-0.9 0-1.9-0.2-2.9-0.5-1-0.4-1.8-0.8-2.5-1.4l1.9-2.6c0.6 0.5 1.3 0.9 1.8 1.1 0.6 0.2 1.2 0.4 1.8 0.4s1.1-0.1 1.4-0.3 0.4-0.5 0.4-0.9c0-0.2-0.1-0.4-0.2-0.6-0.2-0.2-0.4-0.3-0.7-0.5s-0.6-0.3-0.9-0.4-0.7-0.3-1.1-0.4c-0.4-0.2-0.9-0.4-1.3-0.6s-0.8-0.5-1.2-0.8-0.7-0.7-0.9-1.2c-0.2-0.4-0.3-1-0.3-1.5 0-0.6 0.1-1.2 0.4-1.8 0.3-0.5 0.6-1 1.1-1.4s1-0.7 1.7-0.9 1.4-0.3 2.2-0.3c1.1 0 2 0.2 2.8 0.6s1.5 0.8 2.1 1.2l-1.9 2.5c-0.5-0.4-1-0.7-1.5-0.9s-1-0.3-1.5-0.3c-1.1 0-1.6 0.4-1.6 1.1 0 0.2 0.1 0.4 0.2 0.6 0.2 0.2 0.4 0.3 0.6 0.4 0.3 0.1 0.5 0.3 0.9 0.4 0.3 0.1 0.7 0.3 1 0.4 0.5 0.2 0.9 0.4 1.3 0.6s0.9 0.5 1.2 0.8 0.7 0.7 0.9 1.2 0.3 1 0.3 1.7c0 0.6-0.1 1.2-0.4 1.8s-0.6 1-1.1 1.4-1.1 0.7-1.8 1-1.3 0.1-2.2 0.1z"/>

</svg>
